<?xml version="1.0" encoding="UTF-8" standalone="no"?><!DOCTYPE svg PUBLIC "-//W3C//DTD SVG 1.1//EN" "http://www.w3.org/Graphics/SVG/1.1/DTD/svg11.dtd"><svg width="100%" height="100%" viewBox="0 0 2250 2250" version="1.1" xmlns="http://www.w3.org/2000/svg" xmlns:xlink="http://www.w3.org/1999/xlink" xml:space="preserve" xmlns:serif="http://www.serif.com/" style="fill-rule:evenodd;clip-rule:evenodd;stroke-linejoin:round;stroke-miterlimit:2;"><path d="M608.748,885.614c78.989,-0 142.06,25.591 189.212,76.773c47.152,51.182 70.727,121.506 70.727,210.974l0,394.141l-205.533,-0l-0,-366.334c-0,-45.136 -11.687,-80.198 -35.062,-105.185c-23.374,-24.986 -54.809,-37.479 -94.304,-37.479c-39.494,-0 -70.929,12.493 -94.303,37.479c-23.375,24.987 -35.062,60.049 -35.062,105.185l0,366.334l-206.743,-0l0,-674.634l206.743,-0l0,89.467c20.957,-29.822 49.167,-53.398 84.632,-70.727c35.464,-17.33 75.362,-25.994 119.693,-25.994Z" style="fill-rule:nonzero;"/><path d="M1219.3,988.381c19.344,-31.435 47.152,-56.824 83.422,-76.169c36.271,-19.344 77.781,-29.016 124.529,-29.016c55.615,-0 105.991,14.105 151.128,42.315c45.137,28.211 80.803,68.512 106.998,120.903c26.196,52.391 39.294,113.245 39.294,182.562c-0,69.317 -13.098,130.373 -39.294,183.167c-26.195,52.794 -61.861,93.497 -106.998,122.111c-45.137,28.613 -95.513,42.92 -151.128,42.92c-47.554,0 -89.064,-9.471 -124.529,-28.412c-35.464,-18.941 -63.272,-44.129 -83.422,-75.564l-0,94.304l-206.743,-0l-0,-894.676l206.743,-0l-0,315.555Zm295.001,240.595c-0,-51.585 -14.307,-92.087 -42.92,-121.507c-28.614,-29.419 -63.877,-44.129 -105.79,-44.129c-41.106,-0 -75.967,14.911 -104.58,44.734c-28.614,29.822 -42.92,70.526 -42.92,122.111c-0,51.585 14.306,92.289 42.92,122.111c28.613,29.823 63.474,44.734 104.58,44.734c41.107,-0 76.169,-15.113 105.185,-45.338c29.017,-30.226 43.525,-71.131 43.525,-122.716Z" style="fill-rule:nonzero;"/><path d="M1930.21,1577.17c-36.27,0 -65.891,-10.68 -88.863,-32.039c-22.971,-21.359 -34.457,-47.756 -34.457,-79.191c0,-32.24 11.486,-59.242 34.457,-81.004c22.972,-21.763 52.593,-32.644 88.863,-32.644c35.465,0 64.683,10.881 87.654,32.644c22.972,21.762 34.458,48.764 34.458,81.004c-0,31.435 -11.486,57.832 -34.458,79.191c-22.971,21.359 -52.189,32.039 -87.654,32.039Z" style="fill-rule:nonzero;"/></svg>